%FSLAX34Y34*%
G04 Gerber Fmt 3.4, Leading zero omitted, Abs format*
G04 (created by PCBNEW (2014-02-26 BZR 4721)-product) date Tuesday, 26 August 2014 11:02:49*
%MOIN*%
G01*
G70*
G90*
G04 APERTURE LIST*
%ADD10C,0.005906*%
%ADD11R,0.051200X0.059000*%
%ADD12R,0.090000X0.062000*%
%ADD13O,0.090000X0.062000*%
%ADD14R,0.060000X0.060000*%
%ADD15R,0.059000X0.051200*%
%ADD16O,0.060000X0.100000*%
%ADD17C,0.155000*%
%ADD18R,0.023600X0.059085*%
G04 APERTURE END LIST*
G54D10*
G54D11*
X29902Y-28937D03*
X29152Y-28937D03*
X23308Y-28740D03*
X22558Y-28740D03*
X36300Y-28838D03*
X35550Y-28838D03*
X42894Y-28838D03*
X42144Y-28838D03*
G54D12*
X31125Y-34661D03*
G54D13*
X31125Y-33661D03*
X31125Y-32661D03*
X28125Y-32661D03*
X28125Y-33661D03*
X28125Y-34661D03*
G54D12*
X24334Y-34661D03*
G54D13*
X24334Y-33661D03*
X24334Y-32661D03*
X21334Y-32661D03*
X21334Y-33661D03*
X21334Y-34661D03*
G54D12*
X37818Y-34661D03*
G54D13*
X37818Y-33661D03*
X37818Y-32661D03*
X34818Y-32661D03*
X34818Y-33661D03*
X34818Y-34661D03*
G54D12*
X44216Y-34759D03*
G54D13*
X44216Y-33759D03*
X44216Y-32759D03*
X41216Y-32759D03*
X41216Y-33759D03*
X41216Y-34759D03*
G54D14*
X29527Y-40551D03*
X22834Y-40551D03*
X36220Y-40551D03*
X42913Y-40551D03*
G54D15*
X31988Y-38760D03*
X31988Y-38010D03*
X25492Y-38662D03*
X25492Y-37912D03*
X38484Y-39056D03*
X38484Y-38306D03*
X27066Y-37912D03*
X27066Y-38662D03*
X20767Y-38010D03*
X20767Y-38760D03*
X33661Y-38207D03*
X33661Y-38957D03*
X32381Y-34664D03*
X32381Y-35414D03*
X25688Y-34664D03*
X25688Y-35414D03*
X39074Y-34664D03*
X39074Y-35414D03*
X27559Y-35648D03*
X27559Y-36398D03*
X21161Y-35845D03*
X21161Y-36595D03*
X34251Y-35648D03*
X34251Y-36398D03*
G54D11*
X29016Y-30216D03*
X28266Y-30216D03*
X22422Y-30118D03*
X21672Y-30118D03*
X35315Y-30413D03*
X34565Y-30413D03*
X30985Y-30216D03*
X30235Y-30216D03*
X24390Y-30118D03*
X23640Y-30118D03*
X37382Y-30413D03*
X36632Y-30413D03*
G54D15*
X45669Y-39449D03*
X45669Y-38699D03*
X40649Y-38404D03*
X40649Y-39154D03*
X45570Y-34762D03*
X45570Y-35512D03*
X40944Y-35943D03*
X40944Y-36693D03*
G54D11*
X41713Y-30216D03*
X40963Y-30216D03*
X44174Y-30216D03*
X43424Y-30216D03*
G54D16*
X44686Y-44739D03*
X43686Y-44739D03*
X42686Y-44739D03*
X39686Y-44739D03*
X40686Y-44739D03*
X41686Y-44739D03*
X37686Y-44739D03*
X36686Y-44739D03*
X35686Y-44739D03*
X33686Y-44739D03*
X32686Y-44739D03*
X44686Y-25739D03*
X43686Y-25739D03*
X42686Y-25739D03*
X41686Y-25739D03*
X40686Y-25739D03*
X39686Y-25739D03*
X38686Y-25739D03*
X37686Y-25739D03*
X36086Y-25739D03*
X35086Y-25739D03*
X34086Y-25739D03*
X33086Y-25739D03*
X32086Y-25739D03*
X31086Y-25739D03*
X30086Y-25739D03*
X29086Y-25739D03*
X34686Y-44739D03*
G54D17*
X45686Y-42739D03*
X45686Y-31739D03*
X25686Y-25739D03*
X25186Y-44739D03*
G54D14*
X21161Y-44389D03*
G54D18*
X28069Y-37916D03*
X28444Y-36887D03*
X28819Y-37916D03*
X21770Y-38014D03*
X22145Y-36985D03*
X22520Y-38014D03*
X34664Y-38211D03*
X35039Y-37182D03*
X35414Y-38211D03*
X30136Y-37916D03*
X30511Y-36887D03*
X30886Y-37916D03*
X23443Y-38014D03*
X23818Y-36985D03*
X24193Y-38014D03*
X36436Y-38211D03*
X36811Y-37182D03*
X37186Y-38211D03*
X41750Y-38408D03*
X42125Y-37379D03*
X42500Y-38408D03*
X43522Y-38408D03*
X43897Y-37379D03*
X44272Y-38408D03*
M02*
