%FSLAX34Y34*%
G04 Gerber Fmt 3.4, Leading zero omitted, Abs format*
G04 (created by PCBNEW (2014-02-26 BZR 4721)-product) date Tuesday, 26 August 2014 11:02:49*
%MOIN*%
G01*
G70*
G90*
G04 APERTURE LIST*
%ADD10C,0.005906*%
%ADD11C,0.011811*%
%ADD12C,0.005000*%
%ADD13C,0.015000*%
%ADD14C,0.006000*%
%ADD15C,0.002400*%
%ADD16C,0.012000*%
%ADD17C,0.003900*%
G04 APERTURE END LIST*
G54D10*
G54D11*
X22075Y-44530D02*
X22525Y-44530D01*
X22300Y-44755D02*
X22300Y-44305D01*
X23087Y-44164D02*
X22806Y-44164D01*
X22778Y-44446D01*
X22806Y-44417D01*
X22862Y-44389D01*
X23003Y-44389D01*
X23059Y-44417D01*
X23087Y-44446D01*
X23115Y-44502D01*
X23115Y-44642D01*
X23087Y-44699D01*
X23059Y-44727D01*
X23003Y-44755D01*
X22862Y-44755D01*
X22806Y-44727D01*
X22778Y-44699D01*
X23284Y-44164D02*
X23481Y-44755D01*
X23678Y-44164D01*
X25829Y-43889D02*
X25829Y-43298D01*
X25970Y-43298D01*
X26054Y-43326D01*
X26110Y-43383D01*
X26138Y-43439D01*
X26167Y-43551D01*
X26167Y-43636D01*
X26138Y-43748D01*
X26110Y-43804D01*
X26054Y-43861D01*
X25970Y-43889D01*
X25829Y-43889D01*
X26420Y-43832D02*
X26448Y-43861D01*
X26420Y-43889D01*
X26392Y-43861D01*
X26420Y-43832D01*
X26420Y-43889D01*
X27544Y-43945D02*
X27488Y-43917D01*
X27432Y-43861D01*
X27348Y-43776D01*
X27291Y-43748D01*
X27235Y-43748D01*
X27263Y-43889D02*
X27207Y-43861D01*
X27151Y-43804D01*
X27123Y-43692D01*
X27123Y-43495D01*
X27151Y-43383D01*
X27207Y-43326D01*
X27263Y-43298D01*
X27376Y-43298D01*
X27432Y-43326D01*
X27488Y-43383D01*
X27516Y-43495D01*
X27516Y-43692D01*
X27488Y-43804D01*
X27432Y-43861D01*
X27376Y-43889D01*
X27263Y-43889D01*
X27769Y-43832D02*
X27798Y-43861D01*
X27769Y-43889D01*
X27741Y-43861D01*
X27769Y-43832D01*
X27769Y-43889D01*
X28501Y-43889D02*
X28501Y-43298D01*
X28697Y-43720D01*
X28894Y-43298D01*
X28894Y-43889D01*
X29429Y-43861D02*
X29372Y-43889D01*
X29260Y-43889D01*
X29204Y-43861D01*
X29176Y-43832D01*
X29147Y-43776D01*
X29147Y-43607D01*
X29176Y-43551D01*
X29204Y-43523D01*
X29260Y-43495D01*
X29372Y-43495D01*
X29429Y-43523D01*
X29682Y-43889D02*
X29682Y-43298D01*
X29822Y-43298D01*
X29907Y-43326D01*
X29963Y-43383D01*
X29991Y-43439D01*
X30019Y-43551D01*
X30019Y-43636D01*
X29991Y-43748D01*
X29963Y-43804D01*
X29907Y-43861D01*
X29822Y-43889D01*
X29682Y-43889D01*
X30357Y-43889D02*
X30300Y-43861D01*
X30272Y-43832D01*
X30244Y-43776D01*
X30244Y-43607D01*
X30272Y-43551D01*
X30300Y-43523D01*
X30357Y-43495D01*
X30441Y-43495D01*
X30497Y-43523D01*
X30525Y-43551D01*
X30553Y-43607D01*
X30553Y-43776D01*
X30525Y-43832D01*
X30497Y-43861D01*
X30441Y-43889D01*
X30357Y-43889D01*
X30807Y-43495D02*
X30807Y-43889D01*
X30807Y-43551D02*
X30835Y-43523D01*
X30891Y-43495D01*
X30975Y-43495D01*
X31032Y-43523D01*
X31060Y-43579D01*
X31060Y-43889D01*
X31594Y-43889D02*
X31594Y-43579D01*
X31566Y-43523D01*
X31510Y-43495D01*
X31397Y-43495D01*
X31341Y-43523D01*
X31594Y-43861D02*
X31538Y-43889D01*
X31397Y-43889D01*
X31341Y-43861D01*
X31313Y-43804D01*
X31313Y-43748D01*
X31341Y-43692D01*
X31397Y-43664D01*
X31538Y-43664D01*
X31594Y-43636D01*
X31960Y-43889D02*
X31903Y-43861D01*
X31875Y-43804D01*
X31875Y-43298D01*
X32438Y-43889D02*
X32438Y-43298D01*
X32438Y-43861D02*
X32381Y-43889D01*
X32269Y-43889D01*
X32213Y-43861D01*
X32185Y-43832D01*
X32156Y-43776D01*
X32156Y-43607D01*
X32185Y-43551D01*
X32213Y-43523D01*
X32269Y-43495D01*
X32381Y-43495D01*
X32438Y-43523D01*
X26434Y-44665D02*
X26715Y-44665D01*
X26377Y-44834D02*
X26574Y-44243D01*
X26771Y-44834D01*
X27221Y-44440D02*
X27221Y-44834D01*
X26968Y-44440D02*
X26968Y-44749D01*
X26996Y-44805D01*
X27052Y-44834D01*
X27137Y-44834D01*
X27193Y-44805D01*
X27221Y-44777D01*
X27755Y-44440D02*
X27755Y-44918D01*
X27727Y-44974D01*
X27699Y-45002D01*
X27643Y-45030D01*
X27559Y-45030D01*
X27502Y-45002D01*
X27755Y-44805D02*
X27699Y-44834D01*
X27587Y-44834D01*
X27530Y-44805D01*
X27502Y-44777D01*
X27474Y-44721D01*
X27474Y-44552D01*
X27502Y-44496D01*
X27530Y-44468D01*
X27587Y-44440D01*
X27699Y-44440D01*
X27755Y-44468D01*
X28290Y-44440D02*
X28290Y-44834D01*
X28037Y-44440D02*
X28037Y-44749D01*
X28065Y-44805D01*
X28121Y-44834D01*
X28205Y-44834D01*
X28262Y-44805D01*
X28290Y-44777D01*
X28543Y-44805D02*
X28599Y-44834D01*
X28712Y-44834D01*
X28768Y-44805D01*
X28796Y-44749D01*
X28796Y-44721D01*
X28768Y-44665D01*
X28712Y-44637D01*
X28627Y-44637D01*
X28571Y-44609D01*
X28543Y-44552D01*
X28543Y-44524D01*
X28571Y-44468D01*
X28627Y-44440D01*
X28712Y-44440D01*
X28768Y-44468D01*
X28965Y-44440D02*
X29190Y-44440D01*
X29049Y-44243D02*
X29049Y-44749D01*
X29077Y-44805D01*
X29133Y-44834D01*
X29190Y-44834D01*
X29808Y-44299D02*
X29836Y-44271D01*
X29893Y-44243D01*
X30033Y-44243D01*
X30089Y-44271D01*
X30118Y-44299D01*
X30146Y-44356D01*
X30146Y-44412D01*
X30118Y-44496D01*
X29780Y-44834D01*
X30146Y-44834D01*
X30511Y-44243D02*
X30568Y-44243D01*
X30624Y-44271D01*
X30652Y-44299D01*
X30680Y-44356D01*
X30708Y-44468D01*
X30708Y-44609D01*
X30680Y-44721D01*
X30652Y-44777D01*
X30624Y-44805D01*
X30568Y-44834D01*
X30511Y-44834D01*
X30455Y-44805D01*
X30427Y-44777D01*
X30399Y-44721D01*
X30371Y-44609D01*
X30371Y-44468D01*
X30399Y-44356D01*
X30427Y-44299D01*
X30455Y-44271D01*
X30511Y-44243D01*
X31271Y-44834D02*
X30933Y-44834D01*
X31102Y-44834D02*
X31102Y-44243D01*
X31046Y-44327D01*
X30989Y-44384D01*
X30933Y-44412D01*
X31777Y-44440D02*
X31777Y-44834D01*
X31636Y-44215D02*
X31496Y-44637D01*
X31861Y-44637D01*
X26996Y-27516D02*
X26602Y-27516D01*
X26602Y-27826D02*
X26602Y-27235D01*
X27165Y-27235D01*
X27615Y-27826D02*
X27615Y-27432D01*
X27615Y-27544D02*
X27671Y-27488D01*
X27727Y-27460D01*
X27840Y-27432D01*
X27952Y-27432D01*
X28852Y-27432D02*
X28852Y-27826D01*
X28346Y-27432D02*
X28346Y-27741D01*
X28402Y-27798D01*
X28515Y-27826D01*
X28683Y-27826D01*
X28796Y-27798D01*
X28852Y-27769D01*
X29415Y-27826D02*
X29415Y-27432D01*
X29415Y-27235D02*
X29358Y-27263D01*
X29415Y-27291D01*
X29471Y-27263D01*
X29415Y-27235D01*
X29415Y-27291D01*
X29808Y-27432D02*
X30258Y-27432D01*
X29977Y-27235D02*
X29977Y-27741D01*
X30033Y-27798D01*
X30146Y-27826D01*
X30258Y-27826D01*
X30652Y-27601D02*
X31552Y-27601D01*
X32114Y-27826D02*
X32114Y-27235D01*
X32677Y-27432D02*
X32677Y-27826D01*
X32677Y-27488D02*
X32733Y-27460D01*
X32845Y-27432D01*
X33014Y-27432D01*
X33127Y-27460D01*
X33183Y-27516D01*
X33183Y-27826D01*
X34589Y-27798D02*
X34758Y-27826D01*
X35039Y-27826D01*
X35151Y-27798D01*
X35208Y-27769D01*
X35264Y-27713D01*
X35264Y-27657D01*
X35208Y-27601D01*
X35151Y-27573D01*
X35039Y-27544D01*
X34814Y-27516D01*
X34701Y-27488D01*
X34645Y-27460D01*
X34589Y-27404D01*
X34589Y-27348D01*
X34645Y-27291D01*
X34701Y-27263D01*
X34814Y-27235D01*
X35095Y-27235D01*
X35264Y-27263D01*
X35770Y-27826D02*
X35770Y-27235D01*
X36276Y-27826D02*
X36276Y-27516D01*
X36220Y-27460D01*
X36107Y-27432D01*
X35939Y-27432D01*
X35826Y-27460D01*
X35770Y-27488D01*
X36839Y-27826D02*
X36839Y-27432D01*
X36839Y-27235D02*
X36782Y-27263D01*
X36839Y-27291D01*
X36895Y-27263D01*
X36839Y-27235D01*
X36839Y-27291D01*
X37851Y-27798D02*
X37739Y-27826D01*
X37514Y-27826D01*
X37401Y-27798D01*
X37345Y-27741D01*
X37345Y-27516D01*
X37401Y-27460D01*
X37514Y-27432D01*
X37739Y-27432D01*
X37851Y-27460D01*
X37907Y-27516D01*
X37907Y-27573D01*
X37345Y-27629D01*
X38582Y-27826D02*
X38470Y-27798D01*
X38413Y-27741D01*
X38413Y-27235D01*
X39538Y-27826D02*
X39538Y-27235D01*
X39538Y-27798D02*
X39426Y-27826D01*
X39201Y-27826D01*
X39088Y-27798D01*
X39032Y-27769D01*
X38976Y-27713D01*
X38976Y-27544D01*
X39032Y-27488D01*
X39088Y-27460D01*
X39201Y-27432D01*
X39426Y-27432D01*
X39538Y-27460D01*
X41732Y-41690D02*
X41535Y-41690D01*
X41535Y-41999D02*
X41535Y-41408D01*
X41816Y-41408D01*
X42041Y-41999D02*
X42041Y-41605D01*
X42041Y-41718D02*
X42069Y-41661D01*
X42097Y-41633D01*
X42154Y-41605D01*
X42210Y-41605D01*
X42660Y-41605D02*
X42660Y-41999D01*
X42407Y-41605D02*
X42407Y-41915D01*
X42435Y-41971D01*
X42491Y-41999D01*
X42575Y-41999D01*
X42632Y-41971D01*
X42660Y-41943D01*
X42941Y-41999D02*
X42941Y-41605D01*
X42941Y-41408D02*
X42913Y-41437D01*
X42941Y-41465D01*
X42969Y-41437D01*
X42941Y-41408D01*
X42941Y-41465D01*
X43138Y-41605D02*
X43363Y-41605D01*
X43222Y-41408D02*
X43222Y-41915D01*
X43250Y-41971D01*
X43307Y-41999D01*
X43363Y-41999D01*
X44263Y-41605D02*
X44263Y-41999D01*
X44122Y-41380D02*
X43982Y-41802D01*
X44347Y-41802D01*
X35039Y-41690D02*
X34842Y-41690D01*
X34842Y-41999D02*
X34842Y-41408D01*
X35123Y-41408D01*
X35348Y-41999D02*
X35348Y-41605D01*
X35348Y-41718D02*
X35376Y-41661D01*
X35404Y-41633D01*
X35461Y-41605D01*
X35517Y-41605D01*
X35967Y-41605D02*
X35967Y-41999D01*
X35714Y-41605D02*
X35714Y-41915D01*
X35742Y-41971D01*
X35798Y-41999D01*
X35883Y-41999D01*
X35939Y-41971D01*
X35967Y-41943D01*
X36248Y-41999D02*
X36248Y-41605D01*
X36248Y-41408D02*
X36220Y-41437D01*
X36248Y-41465D01*
X36276Y-41437D01*
X36248Y-41408D01*
X36248Y-41465D01*
X36445Y-41605D02*
X36670Y-41605D01*
X36529Y-41408D02*
X36529Y-41915D01*
X36557Y-41971D01*
X36614Y-41999D01*
X36670Y-41999D01*
X37260Y-41408D02*
X37626Y-41408D01*
X37429Y-41633D01*
X37514Y-41633D01*
X37570Y-41661D01*
X37598Y-41690D01*
X37626Y-41746D01*
X37626Y-41886D01*
X37598Y-41943D01*
X37570Y-41971D01*
X37514Y-41999D01*
X37345Y-41999D01*
X37289Y-41971D01*
X37260Y-41943D01*
X28346Y-41690D02*
X28149Y-41690D01*
X28149Y-41999D02*
X28149Y-41408D01*
X28430Y-41408D01*
X28655Y-41999D02*
X28655Y-41605D01*
X28655Y-41718D02*
X28683Y-41661D01*
X28712Y-41633D01*
X28768Y-41605D01*
X28824Y-41605D01*
X29274Y-41605D02*
X29274Y-41999D01*
X29021Y-41605D02*
X29021Y-41915D01*
X29049Y-41971D01*
X29105Y-41999D01*
X29190Y-41999D01*
X29246Y-41971D01*
X29274Y-41943D01*
X29555Y-41999D02*
X29555Y-41605D01*
X29555Y-41408D02*
X29527Y-41437D01*
X29555Y-41465D01*
X29583Y-41437D01*
X29555Y-41408D01*
X29555Y-41465D01*
X29752Y-41605D02*
X29977Y-41605D01*
X29836Y-41408D02*
X29836Y-41915D01*
X29865Y-41971D01*
X29921Y-41999D01*
X29977Y-41999D01*
X30596Y-41465D02*
X30624Y-41437D01*
X30680Y-41408D01*
X30821Y-41408D01*
X30877Y-41437D01*
X30905Y-41465D01*
X30933Y-41521D01*
X30933Y-41577D01*
X30905Y-41661D01*
X30568Y-41999D01*
X30933Y-41999D01*
X21653Y-41690D02*
X21456Y-41690D01*
X21456Y-41999D02*
X21456Y-41408D01*
X21737Y-41408D01*
X21962Y-41999D02*
X21962Y-41605D01*
X21962Y-41718D02*
X21991Y-41661D01*
X22019Y-41633D01*
X22075Y-41605D01*
X22131Y-41605D01*
X22581Y-41605D02*
X22581Y-41999D01*
X22328Y-41605D02*
X22328Y-41915D01*
X22356Y-41971D01*
X22412Y-41999D01*
X22497Y-41999D01*
X22553Y-41971D01*
X22581Y-41943D01*
X22862Y-41999D02*
X22862Y-41605D01*
X22862Y-41408D02*
X22834Y-41437D01*
X22862Y-41465D01*
X22890Y-41437D01*
X22862Y-41408D01*
X22862Y-41465D01*
X23059Y-41605D02*
X23284Y-41605D01*
X23143Y-41408D02*
X23143Y-41915D01*
X23172Y-41971D01*
X23228Y-41999D01*
X23284Y-41999D01*
X24240Y-41999D02*
X23903Y-41999D01*
X24071Y-41999D02*
X24071Y-41408D01*
X24015Y-41493D01*
X23959Y-41549D01*
X23903Y-41577D01*
G54D12*
X29777Y-28687D02*
X29777Y-29187D01*
X29277Y-28687D02*
X29277Y-29177D01*
X29127Y-28687D02*
X29927Y-28687D01*
X29927Y-28687D02*
X29927Y-29187D01*
X29927Y-29187D02*
X29127Y-29187D01*
X29127Y-29187D02*
X29127Y-28687D01*
X23183Y-28490D02*
X23183Y-28990D01*
X22683Y-28490D02*
X22683Y-28980D01*
X22533Y-28490D02*
X23333Y-28490D01*
X23333Y-28490D02*
X23333Y-28990D01*
X23333Y-28990D02*
X22533Y-28990D01*
X22533Y-28990D02*
X22533Y-28490D01*
X36175Y-28588D02*
X36175Y-29088D01*
X35675Y-28588D02*
X35675Y-29078D01*
X35525Y-28588D02*
X36325Y-28588D01*
X36325Y-28588D02*
X36325Y-29088D01*
X36325Y-29088D02*
X35525Y-29088D01*
X35525Y-29088D02*
X35525Y-28588D01*
X42769Y-28588D02*
X42769Y-29088D01*
X42269Y-28588D02*
X42269Y-29078D01*
X42119Y-28588D02*
X42919Y-28588D01*
X42919Y-28588D02*
X42919Y-29088D01*
X42919Y-29088D02*
X42119Y-29088D01*
X42119Y-29088D02*
X42119Y-28588D01*
G54D13*
X28625Y-35411D02*
X28625Y-31911D01*
X28625Y-31911D02*
X30625Y-31911D01*
X30625Y-31911D02*
X30625Y-35411D01*
X30625Y-35411D02*
X28625Y-35411D01*
X29375Y-35411D02*
X29375Y-34911D01*
X29375Y-34911D02*
X29875Y-34911D01*
X29875Y-34911D02*
X29875Y-35411D01*
X21834Y-35411D02*
X21834Y-31911D01*
X21834Y-31911D02*
X23834Y-31911D01*
X23834Y-31911D02*
X23834Y-35411D01*
X23834Y-35411D02*
X21834Y-35411D01*
X22584Y-35411D02*
X22584Y-34911D01*
X22584Y-34911D02*
X23084Y-34911D01*
X23084Y-34911D02*
X23084Y-35411D01*
X35318Y-35411D02*
X35318Y-31911D01*
X35318Y-31911D02*
X37318Y-31911D01*
X37318Y-31911D02*
X37318Y-35411D01*
X37318Y-35411D02*
X35318Y-35411D01*
X36068Y-35411D02*
X36068Y-34911D01*
X36068Y-34911D02*
X36568Y-34911D01*
X36568Y-34911D02*
X36568Y-35411D01*
X41716Y-35509D02*
X41716Y-32009D01*
X41716Y-32009D02*
X43716Y-32009D01*
X43716Y-32009D02*
X43716Y-35509D01*
X43716Y-35509D02*
X41716Y-35509D01*
X42466Y-35509D02*
X42466Y-35009D01*
X42466Y-35009D02*
X42966Y-35009D01*
X42966Y-35009D02*
X42966Y-35509D01*
G54D14*
X30027Y-41051D02*
X29027Y-41051D01*
X29027Y-40051D02*
X30027Y-40051D01*
X29027Y-41051D02*
X29027Y-40051D01*
X30027Y-40051D02*
X30027Y-41051D01*
X23334Y-41051D02*
X22334Y-41051D01*
X22334Y-40051D02*
X23334Y-40051D01*
X22334Y-41051D02*
X22334Y-40051D01*
X23334Y-40051D02*
X23334Y-41051D01*
X36720Y-41051D02*
X35720Y-41051D01*
X35720Y-40051D02*
X36720Y-40051D01*
X35720Y-41051D02*
X35720Y-40051D01*
X36720Y-40051D02*
X36720Y-41051D01*
X43413Y-41051D02*
X42413Y-41051D01*
X42413Y-40051D02*
X43413Y-40051D01*
X42413Y-41051D02*
X42413Y-40051D01*
X43413Y-40051D02*
X43413Y-41051D01*
G54D12*
X32238Y-38635D02*
X31738Y-38635D01*
X32238Y-38135D02*
X31748Y-38135D01*
X32238Y-37985D02*
X32238Y-38785D01*
X32238Y-38785D02*
X31738Y-38785D01*
X31738Y-38785D02*
X31738Y-37985D01*
X31738Y-37985D02*
X32238Y-37985D01*
X25742Y-38537D02*
X25242Y-38537D01*
X25742Y-38037D02*
X25252Y-38037D01*
X25742Y-37887D02*
X25742Y-38687D01*
X25742Y-38687D02*
X25242Y-38687D01*
X25242Y-38687D02*
X25242Y-37887D01*
X25242Y-37887D02*
X25742Y-37887D01*
X38734Y-38931D02*
X38234Y-38931D01*
X38734Y-38431D02*
X38244Y-38431D01*
X38734Y-38281D02*
X38734Y-39081D01*
X38734Y-39081D02*
X38234Y-39081D01*
X38234Y-39081D02*
X38234Y-38281D01*
X38234Y-38281D02*
X38734Y-38281D01*
X26816Y-38037D02*
X27316Y-38037D01*
X26816Y-38537D02*
X27306Y-38537D01*
X26816Y-38687D02*
X26816Y-37887D01*
X26816Y-37887D02*
X27316Y-37887D01*
X27316Y-37887D02*
X27316Y-38687D01*
X27316Y-38687D02*
X26816Y-38687D01*
X20517Y-38135D02*
X21017Y-38135D01*
X20517Y-38635D02*
X21007Y-38635D01*
X20517Y-38785D02*
X20517Y-37985D01*
X20517Y-37985D02*
X21017Y-37985D01*
X21017Y-37985D02*
X21017Y-38785D01*
X21017Y-38785D02*
X20517Y-38785D01*
X33411Y-38332D02*
X33911Y-38332D01*
X33411Y-38832D02*
X33901Y-38832D01*
X33411Y-38982D02*
X33411Y-38182D01*
X33411Y-38182D02*
X33911Y-38182D01*
X33911Y-38182D02*
X33911Y-38982D01*
X33911Y-38982D02*
X33411Y-38982D01*
X32131Y-34789D02*
X32631Y-34789D01*
X32131Y-35289D02*
X32621Y-35289D01*
X32131Y-35439D02*
X32131Y-34639D01*
X32131Y-34639D02*
X32631Y-34639D01*
X32631Y-34639D02*
X32631Y-35439D01*
X32631Y-35439D02*
X32131Y-35439D01*
X25438Y-34789D02*
X25938Y-34789D01*
X25438Y-35289D02*
X25928Y-35289D01*
X25438Y-35439D02*
X25438Y-34639D01*
X25438Y-34639D02*
X25938Y-34639D01*
X25938Y-34639D02*
X25938Y-35439D01*
X25938Y-35439D02*
X25438Y-35439D01*
X38824Y-34789D02*
X39324Y-34789D01*
X38824Y-35289D02*
X39314Y-35289D01*
X38824Y-35439D02*
X38824Y-34639D01*
X38824Y-34639D02*
X39324Y-34639D01*
X39324Y-34639D02*
X39324Y-35439D01*
X39324Y-35439D02*
X38824Y-35439D01*
X27309Y-35773D02*
X27809Y-35773D01*
X27309Y-36273D02*
X27799Y-36273D01*
X27309Y-36423D02*
X27309Y-35623D01*
X27309Y-35623D02*
X27809Y-35623D01*
X27809Y-35623D02*
X27809Y-36423D01*
X27809Y-36423D02*
X27309Y-36423D01*
X20911Y-35970D02*
X21411Y-35970D01*
X20911Y-36470D02*
X21401Y-36470D01*
X20911Y-36620D02*
X20911Y-35820D01*
X20911Y-35820D02*
X21411Y-35820D01*
X21411Y-35820D02*
X21411Y-36620D01*
X21411Y-36620D02*
X20911Y-36620D01*
X34001Y-35773D02*
X34501Y-35773D01*
X34001Y-36273D02*
X34491Y-36273D01*
X34001Y-36423D02*
X34001Y-35623D01*
X34001Y-35623D02*
X34501Y-35623D01*
X34501Y-35623D02*
X34501Y-36423D01*
X34501Y-36423D02*
X34001Y-36423D01*
X28891Y-29966D02*
X28891Y-30466D01*
X28391Y-29966D02*
X28391Y-30456D01*
X28241Y-29966D02*
X29041Y-29966D01*
X29041Y-29966D02*
X29041Y-30466D01*
X29041Y-30466D02*
X28241Y-30466D01*
X28241Y-30466D02*
X28241Y-29966D01*
X22297Y-29868D02*
X22297Y-30368D01*
X21797Y-29868D02*
X21797Y-30358D01*
X21647Y-29868D02*
X22447Y-29868D01*
X22447Y-29868D02*
X22447Y-30368D01*
X22447Y-30368D02*
X21647Y-30368D01*
X21647Y-30368D02*
X21647Y-29868D01*
X35190Y-30163D02*
X35190Y-30663D01*
X34690Y-30163D02*
X34690Y-30653D01*
X34540Y-30163D02*
X35340Y-30163D01*
X35340Y-30163D02*
X35340Y-30663D01*
X35340Y-30663D02*
X34540Y-30663D01*
X34540Y-30663D02*
X34540Y-30163D01*
X30860Y-29966D02*
X30860Y-30466D01*
X30360Y-29966D02*
X30360Y-30456D01*
X30210Y-29966D02*
X31010Y-29966D01*
X31010Y-29966D02*
X31010Y-30466D01*
X31010Y-30466D02*
X30210Y-30466D01*
X30210Y-30466D02*
X30210Y-29966D01*
X24265Y-29868D02*
X24265Y-30368D01*
X23765Y-29868D02*
X23765Y-30358D01*
X23615Y-29868D02*
X24415Y-29868D01*
X24415Y-29868D02*
X24415Y-30368D01*
X24415Y-30368D02*
X23615Y-30368D01*
X23615Y-30368D02*
X23615Y-29868D01*
X37257Y-30163D02*
X37257Y-30663D01*
X36757Y-30163D02*
X36757Y-30653D01*
X36607Y-30163D02*
X37407Y-30163D01*
X37407Y-30163D02*
X37407Y-30663D01*
X37407Y-30663D02*
X36607Y-30663D01*
X36607Y-30663D02*
X36607Y-30163D01*
X45919Y-39324D02*
X45419Y-39324D01*
X45919Y-38824D02*
X45429Y-38824D01*
X45919Y-38674D02*
X45919Y-39474D01*
X45919Y-39474D02*
X45419Y-39474D01*
X45419Y-39474D02*
X45419Y-38674D01*
X45419Y-38674D02*
X45919Y-38674D01*
X40399Y-38529D02*
X40899Y-38529D01*
X40399Y-39029D02*
X40889Y-39029D01*
X40399Y-39179D02*
X40399Y-38379D01*
X40399Y-38379D02*
X40899Y-38379D01*
X40899Y-38379D02*
X40899Y-39179D01*
X40899Y-39179D02*
X40399Y-39179D01*
X45320Y-34887D02*
X45820Y-34887D01*
X45320Y-35387D02*
X45810Y-35387D01*
X45320Y-35537D02*
X45320Y-34737D01*
X45320Y-34737D02*
X45820Y-34737D01*
X45820Y-34737D02*
X45820Y-35537D01*
X45820Y-35537D02*
X45320Y-35537D01*
X40694Y-36068D02*
X41194Y-36068D01*
X40694Y-36568D02*
X41184Y-36568D01*
X40694Y-36718D02*
X40694Y-35918D01*
X40694Y-35918D02*
X41194Y-35918D01*
X41194Y-35918D02*
X41194Y-36718D01*
X41194Y-36718D02*
X40694Y-36718D01*
X41588Y-29966D02*
X41588Y-30466D01*
X41088Y-29966D02*
X41088Y-30456D01*
X40938Y-29966D02*
X41738Y-29966D01*
X41738Y-29966D02*
X41738Y-30466D01*
X41738Y-30466D02*
X40938Y-30466D01*
X40938Y-30466D02*
X40938Y-29966D01*
X44049Y-29966D02*
X44049Y-30466D01*
X43549Y-29966D02*
X43549Y-30456D01*
X43399Y-29966D02*
X44199Y-29966D01*
X44199Y-29966D02*
X44199Y-30466D01*
X44199Y-30466D02*
X43399Y-30466D01*
X43399Y-30466D02*
X43399Y-29966D01*
G54D13*
X45686Y-29739D02*
X45686Y-25239D01*
X45686Y-25239D02*
X45186Y-24739D01*
X45186Y-24739D02*
X19686Y-24739D01*
X45686Y-45739D02*
X19686Y-45739D01*
X19686Y-45739D02*
X19686Y-24739D01*
X45686Y-29739D02*
X46686Y-30739D01*
X46686Y-30739D02*
X46686Y-43739D01*
X46686Y-43739D02*
X45686Y-44739D01*
X45686Y-44739D02*
X45686Y-45739D01*
G54D14*
X21661Y-44889D02*
X20661Y-44889D01*
X20661Y-43889D02*
X21661Y-43889D01*
X20661Y-44889D02*
X20661Y-43889D01*
X21661Y-43889D02*
X21661Y-44889D01*
G54D12*
X28819Y-37676D02*
X28819Y-37936D01*
X28069Y-37676D02*
X28069Y-37936D01*
X28444Y-37126D02*
X28444Y-36866D01*
X27854Y-37126D02*
X29034Y-37126D01*
X29034Y-37126D02*
X29034Y-37676D01*
X29034Y-37676D02*
X27854Y-37676D01*
X27854Y-37676D02*
X27854Y-37126D01*
X22520Y-37775D02*
X22520Y-38035D01*
X21770Y-37775D02*
X21770Y-38035D01*
X22145Y-37225D02*
X22145Y-36965D01*
X21555Y-37225D02*
X22735Y-37225D01*
X22735Y-37225D02*
X22735Y-37775D01*
X22735Y-37775D02*
X21555Y-37775D01*
X21555Y-37775D02*
X21555Y-37225D01*
X35414Y-37971D02*
X35414Y-38231D01*
X34664Y-37971D02*
X34664Y-38231D01*
X35039Y-37421D02*
X35039Y-37161D01*
X34449Y-37421D02*
X35629Y-37421D01*
X35629Y-37421D02*
X35629Y-37971D01*
X35629Y-37971D02*
X34449Y-37971D01*
X34449Y-37971D02*
X34449Y-37421D01*
X30886Y-37676D02*
X30886Y-37936D01*
X30136Y-37676D02*
X30136Y-37936D01*
X30511Y-37126D02*
X30511Y-36866D01*
X29921Y-37126D02*
X31101Y-37126D01*
X31101Y-37126D02*
X31101Y-37676D01*
X31101Y-37676D02*
X29921Y-37676D01*
X29921Y-37676D02*
X29921Y-37126D01*
X24193Y-37775D02*
X24193Y-38035D01*
X23443Y-37775D02*
X23443Y-38035D01*
X23818Y-37225D02*
X23818Y-36965D01*
X23228Y-37225D02*
X24408Y-37225D01*
X24408Y-37225D02*
X24408Y-37775D01*
X24408Y-37775D02*
X23228Y-37775D01*
X23228Y-37775D02*
X23228Y-37225D01*
X37186Y-37971D02*
X37186Y-38231D01*
X36436Y-37971D02*
X36436Y-38231D01*
X36811Y-37421D02*
X36811Y-37161D01*
X36221Y-37421D02*
X37401Y-37421D01*
X37401Y-37421D02*
X37401Y-37971D01*
X37401Y-37971D02*
X36221Y-37971D01*
X36221Y-37971D02*
X36221Y-37421D01*
X42500Y-38168D02*
X42500Y-38428D01*
X41750Y-38168D02*
X41750Y-38428D01*
X42125Y-37618D02*
X42125Y-37358D01*
X41535Y-37618D02*
X42715Y-37618D01*
X42715Y-37618D02*
X42715Y-38168D01*
X42715Y-38168D02*
X41535Y-38168D01*
X41535Y-38168D02*
X41535Y-37618D01*
X44272Y-38168D02*
X44272Y-38428D01*
X43522Y-38168D02*
X43522Y-38428D01*
X43897Y-37618D02*
X43897Y-37358D01*
X43307Y-37618D02*
X44487Y-37618D01*
X44487Y-37618D02*
X44487Y-38168D01*
X44487Y-38168D02*
X43307Y-38168D01*
X43307Y-38168D02*
X43307Y-37618D01*
G54D15*
X29440Y-28600D02*
X29440Y-28482D01*
X29468Y-28482D01*
X29485Y-28488D01*
X29496Y-28499D01*
X29502Y-28510D01*
X29507Y-28532D01*
X29507Y-28549D01*
X29502Y-28572D01*
X29496Y-28583D01*
X29485Y-28594D01*
X29468Y-28600D01*
X29440Y-28600D01*
X29620Y-28600D02*
X29552Y-28600D01*
X29586Y-28600D02*
X29586Y-28482D01*
X29575Y-28499D01*
X29564Y-28510D01*
X29552Y-28516D01*
X22845Y-28403D02*
X22845Y-28285D01*
X22874Y-28285D01*
X22890Y-28291D01*
X22902Y-28302D01*
X22907Y-28313D01*
X22913Y-28336D01*
X22913Y-28352D01*
X22907Y-28375D01*
X22902Y-28386D01*
X22890Y-28397D01*
X22874Y-28403D01*
X22845Y-28403D01*
X22958Y-28296D02*
X22963Y-28291D01*
X22975Y-28285D01*
X23003Y-28285D01*
X23014Y-28291D01*
X23020Y-28296D01*
X23025Y-28308D01*
X23025Y-28319D01*
X23020Y-28336D01*
X22952Y-28403D01*
X23025Y-28403D01*
X35838Y-28501D02*
X35838Y-28383D01*
X35866Y-28383D01*
X35883Y-28389D01*
X35894Y-28400D01*
X35899Y-28412D01*
X35905Y-28434D01*
X35905Y-28451D01*
X35899Y-28473D01*
X35894Y-28485D01*
X35883Y-28496D01*
X35866Y-28501D01*
X35838Y-28501D01*
X35944Y-28383D02*
X36017Y-28383D01*
X35978Y-28428D01*
X35995Y-28428D01*
X36006Y-28434D01*
X36012Y-28440D01*
X36017Y-28451D01*
X36017Y-28479D01*
X36012Y-28490D01*
X36006Y-28496D01*
X35995Y-28501D01*
X35961Y-28501D01*
X35950Y-28496D01*
X35944Y-28490D01*
X42432Y-28501D02*
X42432Y-28383D01*
X42460Y-28383D01*
X42477Y-28389D01*
X42488Y-28400D01*
X42494Y-28412D01*
X42500Y-28434D01*
X42500Y-28451D01*
X42494Y-28473D01*
X42488Y-28485D01*
X42477Y-28496D01*
X42460Y-28501D01*
X42432Y-28501D01*
X42601Y-28423D02*
X42601Y-28501D01*
X42573Y-28378D02*
X42544Y-28462D01*
X42618Y-28462D01*
G54D14*
X29497Y-34051D02*
X28897Y-34051D01*
X29440Y-33632D02*
X29468Y-33651D01*
X29497Y-33709D01*
X29497Y-33747D01*
X29468Y-33804D01*
X29411Y-33842D01*
X29354Y-33861D01*
X29240Y-33880D01*
X29154Y-33880D01*
X29040Y-33861D01*
X28983Y-33842D01*
X28925Y-33804D01*
X28897Y-33747D01*
X28897Y-33709D01*
X28925Y-33651D01*
X28954Y-33632D01*
X29497Y-33251D02*
X29497Y-33480D01*
X29497Y-33366D02*
X28897Y-33366D01*
X28983Y-33404D01*
X29040Y-33442D01*
X29068Y-33480D01*
X30018Y-34111D02*
X30352Y-34111D01*
X29828Y-34194D02*
X30185Y-34278D01*
X30185Y-34061D01*
X30352Y-33928D02*
X29852Y-33928D01*
X30352Y-33728D01*
X29852Y-33728D01*
X29852Y-33594D02*
X29852Y-33378D01*
X30042Y-33494D01*
X30042Y-33444D01*
X30066Y-33411D01*
X30090Y-33394D01*
X30137Y-33378D01*
X30256Y-33378D01*
X30304Y-33394D01*
X30328Y-33411D01*
X30352Y-33444D01*
X30352Y-33544D01*
X30328Y-33578D01*
X30304Y-33594D01*
X29852Y-33061D02*
X29852Y-33228D01*
X30090Y-33244D01*
X30066Y-33228D01*
X30042Y-33194D01*
X30042Y-33111D01*
X30066Y-33078D01*
X30090Y-33061D01*
X30137Y-33044D01*
X30256Y-33044D01*
X30304Y-33061D01*
X30328Y-33078D01*
X30352Y-33111D01*
X30352Y-33194D01*
X30328Y-33228D01*
X30304Y-33244D01*
X22706Y-34051D02*
X22106Y-34051D01*
X22648Y-33632D02*
X22677Y-33651D01*
X22706Y-33709D01*
X22706Y-33747D01*
X22677Y-33804D01*
X22620Y-33842D01*
X22563Y-33861D01*
X22448Y-33880D01*
X22363Y-33880D01*
X22248Y-33861D01*
X22191Y-33842D01*
X22134Y-33804D01*
X22106Y-33747D01*
X22106Y-33709D01*
X22134Y-33651D01*
X22163Y-33632D01*
X22163Y-33480D02*
X22134Y-33461D01*
X22106Y-33423D01*
X22106Y-33328D01*
X22134Y-33289D01*
X22163Y-33270D01*
X22220Y-33251D01*
X22277Y-33251D01*
X22363Y-33270D01*
X22706Y-33499D01*
X22706Y-33251D01*
X23227Y-34111D02*
X23560Y-34111D01*
X23037Y-34194D02*
X23394Y-34278D01*
X23394Y-34061D01*
X23560Y-33928D02*
X23060Y-33928D01*
X23560Y-33728D01*
X23060Y-33728D01*
X23060Y-33594D02*
X23060Y-33378D01*
X23251Y-33494D01*
X23251Y-33444D01*
X23275Y-33411D01*
X23298Y-33394D01*
X23346Y-33378D01*
X23465Y-33378D01*
X23513Y-33394D01*
X23537Y-33411D01*
X23560Y-33444D01*
X23560Y-33544D01*
X23537Y-33578D01*
X23513Y-33594D01*
X23060Y-33061D02*
X23060Y-33228D01*
X23298Y-33244D01*
X23275Y-33228D01*
X23251Y-33194D01*
X23251Y-33111D01*
X23275Y-33078D01*
X23298Y-33061D01*
X23346Y-33044D01*
X23465Y-33044D01*
X23513Y-33061D01*
X23537Y-33078D01*
X23560Y-33111D01*
X23560Y-33194D01*
X23537Y-33228D01*
X23513Y-33244D01*
X36190Y-34051D02*
X35590Y-34051D01*
X36133Y-33632D02*
X36161Y-33651D01*
X36190Y-33709D01*
X36190Y-33747D01*
X36161Y-33804D01*
X36104Y-33842D01*
X36047Y-33861D01*
X35933Y-33880D01*
X35847Y-33880D01*
X35733Y-33861D01*
X35676Y-33842D01*
X35618Y-33804D01*
X35590Y-33747D01*
X35590Y-33709D01*
X35618Y-33651D01*
X35647Y-33632D01*
X35590Y-33499D02*
X35590Y-33251D01*
X35818Y-33385D01*
X35818Y-33328D01*
X35847Y-33289D01*
X35876Y-33270D01*
X35933Y-33251D01*
X36076Y-33251D01*
X36133Y-33270D01*
X36161Y-33289D01*
X36190Y-33328D01*
X36190Y-33442D01*
X36161Y-33480D01*
X36133Y-33499D01*
X36711Y-34111D02*
X37045Y-34111D01*
X36521Y-34194D02*
X36878Y-34278D01*
X36878Y-34061D01*
X37045Y-33928D02*
X36545Y-33928D01*
X37045Y-33728D01*
X36545Y-33728D01*
X36545Y-33594D02*
X36545Y-33378D01*
X36735Y-33494D01*
X36735Y-33444D01*
X36759Y-33411D01*
X36783Y-33394D01*
X36830Y-33378D01*
X36949Y-33378D01*
X36997Y-33394D01*
X37021Y-33411D01*
X37045Y-33444D01*
X37045Y-33544D01*
X37021Y-33578D01*
X36997Y-33594D01*
X36545Y-33061D02*
X36545Y-33228D01*
X36783Y-33244D01*
X36759Y-33228D01*
X36735Y-33194D01*
X36735Y-33111D01*
X36759Y-33078D01*
X36783Y-33061D01*
X36830Y-33044D01*
X36949Y-33044D01*
X36997Y-33061D01*
X37021Y-33078D01*
X37045Y-33111D01*
X37045Y-33194D01*
X37021Y-33228D01*
X36997Y-33244D01*
X42587Y-34150D02*
X41987Y-34150D01*
X42530Y-33731D02*
X42559Y-33750D01*
X42587Y-33807D01*
X42587Y-33845D01*
X42559Y-33902D01*
X42502Y-33940D01*
X42445Y-33959D01*
X42330Y-33978D01*
X42245Y-33978D01*
X42130Y-33959D01*
X42073Y-33940D01*
X42016Y-33902D01*
X41987Y-33845D01*
X41987Y-33807D01*
X42016Y-33750D01*
X42045Y-33731D01*
X42187Y-33388D02*
X42587Y-33388D01*
X41959Y-33483D02*
X42387Y-33578D01*
X42387Y-33331D01*
X43109Y-34209D02*
X43442Y-34209D01*
X42918Y-34293D02*
X43276Y-34376D01*
X43276Y-34159D01*
X43442Y-34026D02*
X42942Y-34026D01*
X43442Y-33826D01*
X42942Y-33826D01*
X42942Y-33693D02*
X42942Y-33476D01*
X43133Y-33593D01*
X43133Y-33543D01*
X43157Y-33509D01*
X43180Y-33493D01*
X43228Y-33476D01*
X43347Y-33476D01*
X43395Y-33493D01*
X43418Y-33509D01*
X43442Y-33543D01*
X43442Y-33643D01*
X43418Y-33676D01*
X43395Y-33693D01*
X42942Y-33159D02*
X42942Y-33326D01*
X43180Y-33343D01*
X43157Y-33326D01*
X43133Y-33293D01*
X43133Y-33209D01*
X43157Y-33176D01*
X43180Y-33159D01*
X43228Y-33143D01*
X43347Y-33143D01*
X43395Y-33159D01*
X43418Y-33176D01*
X43442Y-33209D01*
X43442Y-33293D01*
X43418Y-33326D01*
X43395Y-33343D01*
X29306Y-39936D02*
X29306Y-39636D01*
X29420Y-39636D01*
X29448Y-39651D01*
X29463Y-39665D01*
X29477Y-39694D01*
X29477Y-39736D01*
X29463Y-39765D01*
X29448Y-39779D01*
X29420Y-39794D01*
X29306Y-39794D01*
X29763Y-39936D02*
X29591Y-39936D01*
X29677Y-39936D02*
X29677Y-39636D01*
X29648Y-39679D01*
X29620Y-39708D01*
X29591Y-39722D01*
X22613Y-39936D02*
X22613Y-39636D01*
X22727Y-39636D01*
X22756Y-39651D01*
X22770Y-39665D01*
X22784Y-39694D01*
X22784Y-39736D01*
X22770Y-39765D01*
X22756Y-39779D01*
X22727Y-39794D01*
X22613Y-39794D01*
X22898Y-39665D02*
X22913Y-39651D01*
X22941Y-39636D01*
X23013Y-39636D01*
X23041Y-39651D01*
X23056Y-39665D01*
X23070Y-39694D01*
X23070Y-39722D01*
X23056Y-39765D01*
X22884Y-39936D01*
X23070Y-39936D01*
X35999Y-39936D02*
X35999Y-39636D01*
X36113Y-39636D01*
X36141Y-39651D01*
X36156Y-39665D01*
X36170Y-39694D01*
X36170Y-39736D01*
X36156Y-39765D01*
X36141Y-39779D01*
X36113Y-39794D01*
X35999Y-39794D01*
X36270Y-39636D02*
X36456Y-39636D01*
X36356Y-39751D01*
X36399Y-39751D01*
X36427Y-39765D01*
X36441Y-39779D01*
X36456Y-39808D01*
X36456Y-39879D01*
X36441Y-39908D01*
X36427Y-39922D01*
X36399Y-39936D01*
X36313Y-39936D01*
X36284Y-39922D01*
X36270Y-39908D01*
X42691Y-39936D02*
X42691Y-39636D01*
X42806Y-39636D01*
X42834Y-39651D01*
X42849Y-39665D01*
X42863Y-39694D01*
X42863Y-39736D01*
X42849Y-39765D01*
X42834Y-39779D01*
X42806Y-39794D01*
X42691Y-39794D01*
X43120Y-39736D02*
X43120Y-39936D01*
X43049Y-39622D02*
X42977Y-39836D01*
X43163Y-39836D01*
G54D15*
X32431Y-38405D02*
X32375Y-38444D01*
X32431Y-38472D02*
X32313Y-38472D01*
X32313Y-38427D01*
X32319Y-38416D01*
X32324Y-38411D01*
X32336Y-38405D01*
X32352Y-38405D01*
X32364Y-38411D01*
X32369Y-38416D01*
X32375Y-38427D01*
X32375Y-38472D01*
X32431Y-38293D02*
X32431Y-38360D01*
X32431Y-38326D02*
X32313Y-38326D01*
X32330Y-38338D01*
X32341Y-38349D01*
X32347Y-38360D01*
X25935Y-38307D02*
X25879Y-38346D01*
X25935Y-38374D02*
X25817Y-38374D01*
X25817Y-38329D01*
X25823Y-38318D01*
X25828Y-38312D01*
X25839Y-38307D01*
X25856Y-38307D01*
X25868Y-38312D01*
X25873Y-38318D01*
X25879Y-38329D01*
X25879Y-38374D01*
X25828Y-38262D02*
X25823Y-38256D01*
X25817Y-38245D01*
X25817Y-38217D01*
X25823Y-38205D01*
X25828Y-38200D01*
X25839Y-38194D01*
X25851Y-38194D01*
X25868Y-38200D01*
X25935Y-38267D01*
X25935Y-38194D01*
X38927Y-38700D02*
X38871Y-38740D01*
X38927Y-38768D02*
X38809Y-38768D01*
X38809Y-38723D01*
X38815Y-38712D01*
X38820Y-38706D01*
X38832Y-38700D01*
X38848Y-38700D01*
X38860Y-38706D01*
X38865Y-38712D01*
X38871Y-38723D01*
X38871Y-38768D01*
X38809Y-38661D02*
X38809Y-38588D01*
X38854Y-38627D01*
X38854Y-38610D01*
X38860Y-38599D01*
X38865Y-38594D01*
X38877Y-38588D01*
X38905Y-38588D01*
X38916Y-38594D01*
X38922Y-38599D01*
X38927Y-38610D01*
X38927Y-38644D01*
X38922Y-38655D01*
X38916Y-38661D01*
X26730Y-38307D02*
X26674Y-38346D01*
X26730Y-38374D02*
X26612Y-38374D01*
X26612Y-38329D01*
X26617Y-38318D01*
X26623Y-38312D01*
X26634Y-38307D01*
X26651Y-38307D01*
X26662Y-38312D01*
X26668Y-38318D01*
X26674Y-38329D01*
X26674Y-38374D01*
X26651Y-38205D02*
X26730Y-38205D01*
X26606Y-38234D02*
X26690Y-38262D01*
X26690Y-38189D01*
X20431Y-38405D02*
X20374Y-38444D01*
X20431Y-38472D02*
X20313Y-38472D01*
X20313Y-38427D01*
X20318Y-38416D01*
X20324Y-38411D01*
X20335Y-38405D01*
X20352Y-38405D01*
X20363Y-38411D01*
X20369Y-38416D01*
X20374Y-38427D01*
X20374Y-38472D01*
X20313Y-38298D02*
X20313Y-38354D01*
X20369Y-38360D01*
X20363Y-38354D01*
X20358Y-38343D01*
X20358Y-38315D01*
X20363Y-38304D01*
X20369Y-38298D01*
X20380Y-38293D01*
X20408Y-38293D01*
X20419Y-38298D01*
X20425Y-38304D01*
X20431Y-38315D01*
X20431Y-38343D01*
X20425Y-38354D01*
X20419Y-38360D01*
X33324Y-38602D02*
X33268Y-38641D01*
X33324Y-38669D02*
X33206Y-38669D01*
X33206Y-38624D01*
X33212Y-38613D01*
X33218Y-38607D01*
X33229Y-38602D01*
X33246Y-38602D01*
X33257Y-38607D01*
X33262Y-38613D01*
X33268Y-38624D01*
X33268Y-38669D01*
X33206Y-38501D02*
X33206Y-38523D01*
X33212Y-38534D01*
X33218Y-38540D01*
X33234Y-38551D01*
X33257Y-38557D01*
X33302Y-38557D01*
X33313Y-38551D01*
X33319Y-38546D01*
X33324Y-38534D01*
X33324Y-38512D01*
X33319Y-38501D01*
X33313Y-38495D01*
X33302Y-38489D01*
X33274Y-38489D01*
X33262Y-38495D01*
X33257Y-38501D01*
X33251Y-38512D01*
X33251Y-38534D01*
X33257Y-38546D01*
X33262Y-38551D01*
X33274Y-38557D01*
X32045Y-35059D02*
X31989Y-35098D01*
X32045Y-35126D02*
X31927Y-35126D01*
X31927Y-35081D01*
X31932Y-35070D01*
X31938Y-35064D01*
X31949Y-35059D01*
X31966Y-35059D01*
X31977Y-35064D01*
X31983Y-35070D01*
X31989Y-35081D01*
X31989Y-35126D01*
X31927Y-35019D02*
X31927Y-34941D01*
X32045Y-34991D01*
X25352Y-35059D02*
X25296Y-35098D01*
X25352Y-35126D02*
X25234Y-35126D01*
X25234Y-35081D01*
X25239Y-35070D01*
X25245Y-35064D01*
X25256Y-35059D01*
X25273Y-35059D01*
X25284Y-35064D01*
X25290Y-35070D01*
X25296Y-35081D01*
X25296Y-35126D01*
X25284Y-34991D02*
X25279Y-35002D01*
X25273Y-35008D01*
X25262Y-35014D01*
X25256Y-35014D01*
X25245Y-35008D01*
X25239Y-35002D01*
X25234Y-34991D01*
X25234Y-34969D01*
X25239Y-34957D01*
X25245Y-34952D01*
X25256Y-34946D01*
X25262Y-34946D01*
X25273Y-34952D01*
X25279Y-34957D01*
X25284Y-34969D01*
X25284Y-34991D01*
X25290Y-35002D01*
X25296Y-35008D01*
X25307Y-35014D01*
X25329Y-35014D01*
X25341Y-35008D01*
X25346Y-35002D01*
X25352Y-34991D01*
X25352Y-34969D01*
X25346Y-34957D01*
X25341Y-34952D01*
X25329Y-34946D01*
X25307Y-34946D01*
X25296Y-34952D01*
X25290Y-34957D01*
X25284Y-34969D01*
X38738Y-35059D02*
X38681Y-35098D01*
X38738Y-35126D02*
X38620Y-35126D01*
X38620Y-35081D01*
X38625Y-35070D01*
X38631Y-35064D01*
X38642Y-35059D01*
X38659Y-35059D01*
X38670Y-35064D01*
X38676Y-35070D01*
X38681Y-35081D01*
X38681Y-35126D01*
X38738Y-35002D02*
X38738Y-34980D01*
X38732Y-34969D01*
X38726Y-34963D01*
X38710Y-34952D01*
X38687Y-34946D01*
X38642Y-34946D01*
X38631Y-34952D01*
X38625Y-34957D01*
X38620Y-34969D01*
X38620Y-34991D01*
X38625Y-35002D01*
X38631Y-35008D01*
X38642Y-35014D01*
X38670Y-35014D01*
X38681Y-35008D01*
X38687Y-35002D01*
X38693Y-34991D01*
X38693Y-34969D01*
X38687Y-34957D01*
X38681Y-34952D01*
X38670Y-34946D01*
X27222Y-36099D02*
X27166Y-36138D01*
X27222Y-36166D02*
X27104Y-36166D01*
X27104Y-36121D01*
X27110Y-36110D01*
X27115Y-36105D01*
X27126Y-36099D01*
X27143Y-36099D01*
X27155Y-36105D01*
X27160Y-36110D01*
X27166Y-36121D01*
X27166Y-36166D01*
X27222Y-35987D02*
X27222Y-36054D01*
X27222Y-36020D02*
X27104Y-36020D01*
X27121Y-36032D01*
X27132Y-36043D01*
X27138Y-36054D01*
X27104Y-35914D02*
X27104Y-35902D01*
X27110Y-35891D01*
X27115Y-35885D01*
X27126Y-35880D01*
X27149Y-35874D01*
X27177Y-35874D01*
X27199Y-35880D01*
X27211Y-35885D01*
X27216Y-35891D01*
X27222Y-35902D01*
X27222Y-35914D01*
X27216Y-35925D01*
X27211Y-35930D01*
X27199Y-35936D01*
X27177Y-35942D01*
X27149Y-35942D01*
X27126Y-35936D01*
X27115Y-35930D01*
X27110Y-35925D01*
X27104Y-35914D01*
X20824Y-36296D02*
X20768Y-36335D01*
X20824Y-36363D02*
X20706Y-36363D01*
X20706Y-36318D01*
X20712Y-36307D01*
X20718Y-36301D01*
X20729Y-36296D01*
X20746Y-36296D01*
X20757Y-36301D01*
X20762Y-36307D01*
X20768Y-36318D01*
X20768Y-36363D01*
X20824Y-36183D02*
X20824Y-36251D01*
X20824Y-36217D02*
X20706Y-36217D01*
X20723Y-36228D01*
X20734Y-36240D01*
X20740Y-36251D01*
X20824Y-36071D02*
X20824Y-36138D01*
X20824Y-36105D02*
X20706Y-36105D01*
X20723Y-36116D01*
X20734Y-36127D01*
X20740Y-36138D01*
X33915Y-36099D02*
X33859Y-36138D01*
X33915Y-36166D02*
X33797Y-36166D01*
X33797Y-36121D01*
X33802Y-36110D01*
X33808Y-36105D01*
X33819Y-36099D01*
X33836Y-36099D01*
X33847Y-36105D01*
X33853Y-36110D01*
X33859Y-36121D01*
X33859Y-36166D01*
X33915Y-35987D02*
X33915Y-36054D01*
X33915Y-36020D02*
X33797Y-36020D01*
X33814Y-36032D01*
X33825Y-36043D01*
X33831Y-36054D01*
X33808Y-35942D02*
X33802Y-35936D01*
X33797Y-35925D01*
X33797Y-35897D01*
X33802Y-35885D01*
X33808Y-35880D01*
X33819Y-35874D01*
X33831Y-35874D01*
X33847Y-35880D01*
X33915Y-35947D01*
X33915Y-35874D01*
X28565Y-29879D02*
X28526Y-29823D01*
X28498Y-29879D02*
X28498Y-29761D01*
X28543Y-29761D01*
X28554Y-29767D01*
X28560Y-29773D01*
X28565Y-29784D01*
X28565Y-29801D01*
X28560Y-29812D01*
X28554Y-29818D01*
X28543Y-29823D01*
X28498Y-29823D01*
X28678Y-29879D02*
X28610Y-29879D01*
X28644Y-29879D02*
X28644Y-29761D01*
X28633Y-29778D01*
X28622Y-29790D01*
X28610Y-29795D01*
X28717Y-29761D02*
X28790Y-29761D01*
X28751Y-29806D01*
X28768Y-29806D01*
X28779Y-29812D01*
X28785Y-29818D01*
X28790Y-29829D01*
X28790Y-29857D01*
X28785Y-29868D01*
X28779Y-29874D01*
X28768Y-29879D01*
X28734Y-29879D01*
X28723Y-29874D01*
X28717Y-29868D01*
X21971Y-29781D02*
X21932Y-29725D01*
X21903Y-29781D02*
X21903Y-29663D01*
X21948Y-29663D01*
X21960Y-29669D01*
X21965Y-29674D01*
X21971Y-29685D01*
X21971Y-29702D01*
X21965Y-29714D01*
X21960Y-29719D01*
X21948Y-29725D01*
X21903Y-29725D01*
X22083Y-29781D02*
X22016Y-29781D01*
X22050Y-29781D02*
X22050Y-29663D01*
X22038Y-29680D01*
X22027Y-29691D01*
X22016Y-29697D01*
X22184Y-29702D02*
X22184Y-29781D01*
X22156Y-29657D02*
X22128Y-29742D01*
X22201Y-29742D01*
X34865Y-30076D02*
X34825Y-30020D01*
X34797Y-30076D02*
X34797Y-29958D01*
X34842Y-29958D01*
X34853Y-29964D01*
X34859Y-29970D01*
X34865Y-29981D01*
X34865Y-29998D01*
X34859Y-30009D01*
X34853Y-30014D01*
X34842Y-30020D01*
X34797Y-30020D01*
X34977Y-30076D02*
X34910Y-30076D01*
X34943Y-30076D02*
X34943Y-29958D01*
X34932Y-29975D01*
X34921Y-29986D01*
X34910Y-29992D01*
X35084Y-29958D02*
X35028Y-29958D01*
X35022Y-30014D01*
X35028Y-30009D01*
X35039Y-30003D01*
X35067Y-30003D01*
X35078Y-30009D01*
X35084Y-30014D01*
X35089Y-30026D01*
X35089Y-30054D01*
X35084Y-30065D01*
X35078Y-30071D01*
X35067Y-30076D01*
X35039Y-30076D01*
X35028Y-30071D01*
X35022Y-30065D01*
X30534Y-29879D02*
X30495Y-29823D01*
X30466Y-29879D02*
X30466Y-29761D01*
X30511Y-29761D01*
X30523Y-29767D01*
X30528Y-29773D01*
X30534Y-29784D01*
X30534Y-29801D01*
X30528Y-29812D01*
X30523Y-29818D01*
X30511Y-29823D01*
X30466Y-29823D01*
X30646Y-29879D02*
X30579Y-29879D01*
X30613Y-29879D02*
X30613Y-29761D01*
X30601Y-29778D01*
X30590Y-29790D01*
X30579Y-29795D01*
X30747Y-29761D02*
X30725Y-29761D01*
X30714Y-29767D01*
X30708Y-29773D01*
X30697Y-29790D01*
X30691Y-29812D01*
X30691Y-29857D01*
X30697Y-29868D01*
X30702Y-29874D01*
X30714Y-29879D01*
X30736Y-29879D01*
X30747Y-29874D01*
X30753Y-29868D01*
X30759Y-29857D01*
X30759Y-29829D01*
X30753Y-29818D01*
X30747Y-29812D01*
X30736Y-29806D01*
X30714Y-29806D01*
X30702Y-29812D01*
X30697Y-29818D01*
X30691Y-29829D01*
X23939Y-29781D02*
X23900Y-29725D01*
X23872Y-29781D02*
X23872Y-29663D01*
X23917Y-29663D01*
X23928Y-29669D01*
X23934Y-29674D01*
X23939Y-29685D01*
X23939Y-29702D01*
X23934Y-29714D01*
X23928Y-29719D01*
X23917Y-29725D01*
X23872Y-29725D01*
X24052Y-29781D02*
X23984Y-29781D01*
X24018Y-29781D02*
X24018Y-29663D01*
X24007Y-29680D01*
X23996Y-29691D01*
X23984Y-29697D01*
X24091Y-29663D02*
X24170Y-29663D01*
X24119Y-29781D01*
X36932Y-30076D02*
X36892Y-30020D01*
X36864Y-30076D02*
X36864Y-29958D01*
X36909Y-29958D01*
X36920Y-29964D01*
X36926Y-29970D01*
X36932Y-29981D01*
X36932Y-29998D01*
X36926Y-30009D01*
X36920Y-30014D01*
X36909Y-30020D01*
X36864Y-30020D01*
X37044Y-30076D02*
X36976Y-30076D01*
X37010Y-30076D02*
X37010Y-29958D01*
X36999Y-29975D01*
X36988Y-29986D01*
X36976Y-29992D01*
X37111Y-30009D02*
X37100Y-30003D01*
X37094Y-29998D01*
X37089Y-29986D01*
X37089Y-29981D01*
X37094Y-29970D01*
X37100Y-29964D01*
X37111Y-29958D01*
X37134Y-29958D01*
X37145Y-29964D01*
X37151Y-29970D01*
X37156Y-29981D01*
X37156Y-29986D01*
X37151Y-29998D01*
X37145Y-30003D01*
X37134Y-30009D01*
X37111Y-30009D01*
X37100Y-30014D01*
X37094Y-30020D01*
X37089Y-30031D01*
X37089Y-30054D01*
X37094Y-30065D01*
X37100Y-30071D01*
X37111Y-30076D01*
X37134Y-30076D01*
X37145Y-30071D01*
X37151Y-30065D01*
X37156Y-30054D01*
X37156Y-30031D01*
X37151Y-30020D01*
X37145Y-30014D01*
X37134Y-30009D01*
X46112Y-39150D02*
X46056Y-39189D01*
X46112Y-39218D02*
X45994Y-39218D01*
X45994Y-39173D01*
X46000Y-39161D01*
X46005Y-39156D01*
X46017Y-39150D01*
X46034Y-39150D01*
X46045Y-39156D01*
X46050Y-39161D01*
X46056Y-39173D01*
X46056Y-39218D01*
X46112Y-39038D02*
X46112Y-39105D01*
X46112Y-39071D02*
X45994Y-39071D01*
X46011Y-39083D01*
X46022Y-39094D01*
X46028Y-39105D01*
X46112Y-38982D02*
X46112Y-38959D01*
X46107Y-38948D01*
X46101Y-38942D01*
X46084Y-38931D01*
X46062Y-38925D01*
X46017Y-38925D01*
X46005Y-38931D01*
X46000Y-38937D01*
X45994Y-38948D01*
X45994Y-38970D01*
X46000Y-38982D01*
X46005Y-38987D01*
X46017Y-38993D01*
X46045Y-38993D01*
X46056Y-38987D01*
X46062Y-38982D01*
X46067Y-38970D01*
X46067Y-38948D01*
X46062Y-38937D01*
X46056Y-38931D01*
X46045Y-38925D01*
X40312Y-38855D02*
X40256Y-38894D01*
X40312Y-38922D02*
X40194Y-38922D01*
X40194Y-38877D01*
X40200Y-38866D01*
X40206Y-38861D01*
X40217Y-38855D01*
X40234Y-38855D01*
X40245Y-38861D01*
X40251Y-38866D01*
X40256Y-38877D01*
X40256Y-38922D01*
X40206Y-38810D02*
X40200Y-38804D01*
X40194Y-38793D01*
X40194Y-38765D01*
X40200Y-38754D01*
X40206Y-38748D01*
X40217Y-38743D01*
X40228Y-38743D01*
X40245Y-38748D01*
X40312Y-38816D01*
X40312Y-38743D01*
X40194Y-38669D02*
X40194Y-38658D01*
X40200Y-38647D01*
X40206Y-38641D01*
X40217Y-38636D01*
X40239Y-38630D01*
X40268Y-38630D01*
X40290Y-38636D01*
X40301Y-38641D01*
X40307Y-38647D01*
X40312Y-38658D01*
X40312Y-38669D01*
X40307Y-38681D01*
X40301Y-38686D01*
X40290Y-38692D01*
X40268Y-38698D01*
X40239Y-38698D01*
X40217Y-38692D01*
X40206Y-38686D01*
X40200Y-38681D01*
X40194Y-38669D01*
X45234Y-35213D02*
X45178Y-35252D01*
X45234Y-35281D02*
X45116Y-35281D01*
X45116Y-35236D01*
X45121Y-35224D01*
X45127Y-35219D01*
X45138Y-35213D01*
X45155Y-35213D01*
X45166Y-35219D01*
X45172Y-35224D01*
X45178Y-35236D01*
X45178Y-35281D01*
X45127Y-35168D02*
X45121Y-35163D01*
X45116Y-35151D01*
X45116Y-35123D01*
X45121Y-35112D01*
X45127Y-35106D01*
X45138Y-35101D01*
X45149Y-35101D01*
X45166Y-35106D01*
X45234Y-35174D01*
X45234Y-35101D01*
X45234Y-34988D02*
X45234Y-35056D01*
X45234Y-35022D02*
X45116Y-35022D01*
X45133Y-35033D01*
X45144Y-35045D01*
X45149Y-35056D01*
X40608Y-36394D02*
X40552Y-36434D01*
X40608Y-36462D02*
X40490Y-36462D01*
X40490Y-36417D01*
X40495Y-36405D01*
X40501Y-36400D01*
X40512Y-36394D01*
X40529Y-36394D01*
X40540Y-36400D01*
X40546Y-36405D01*
X40552Y-36417D01*
X40552Y-36462D01*
X40501Y-36349D02*
X40495Y-36344D01*
X40490Y-36332D01*
X40490Y-36304D01*
X40495Y-36293D01*
X40501Y-36287D01*
X40512Y-36282D01*
X40523Y-36282D01*
X40540Y-36287D01*
X40608Y-36355D01*
X40608Y-36282D01*
X40501Y-36237D02*
X40495Y-36231D01*
X40490Y-36220D01*
X40490Y-36192D01*
X40495Y-36181D01*
X40501Y-36175D01*
X40512Y-36169D01*
X40523Y-36169D01*
X40540Y-36175D01*
X40608Y-36243D01*
X40608Y-36169D01*
X41262Y-29879D02*
X41223Y-29823D01*
X41195Y-29879D02*
X41195Y-29761D01*
X41240Y-29761D01*
X41251Y-29767D01*
X41257Y-29773D01*
X41262Y-29784D01*
X41262Y-29801D01*
X41257Y-29812D01*
X41251Y-29818D01*
X41240Y-29823D01*
X41195Y-29823D01*
X41307Y-29773D02*
X41313Y-29767D01*
X41324Y-29761D01*
X41352Y-29761D01*
X41363Y-29767D01*
X41369Y-29773D01*
X41375Y-29784D01*
X41375Y-29795D01*
X41369Y-29812D01*
X41302Y-29879D01*
X41375Y-29879D01*
X41414Y-29761D02*
X41487Y-29761D01*
X41448Y-29806D01*
X41465Y-29806D01*
X41476Y-29812D01*
X41481Y-29818D01*
X41487Y-29829D01*
X41487Y-29857D01*
X41481Y-29868D01*
X41476Y-29874D01*
X41465Y-29879D01*
X41431Y-29879D01*
X41420Y-29874D01*
X41414Y-29868D01*
X43723Y-29879D02*
X43684Y-29823D01*
X43655Y-29879D02*
X43655Y-29761D01*
X43700Y-29761D01*
X43712Y-29767D01*
X43717Y-29773D01*
X43723Y-29784D01*
X43723Y-29801D01*
X43717Y-29812D01*
X43712Y-29818D01*
X43700Y-29823D01*
X43655Y-29823D01*
X43768Y-29773D02*
X43773Y-29767D01*
X43785Y-29761D01*
X43813Y-29761D01*
X43824Y-29767D01*
X43830Y-29773D01*
X43835Y-29784D01*
X43835Y-29795D01*
X43830Y-29812D01*
X43762Y-29879D01*
X43835Y-29879D01*
X43936Y-29801D02*
X43936Y-29879D01*
X43908Y-29756D02*
X43880Y-29840D01*
X43953Y-29840D01*
G54D16*
G54D14*
X20939Y-43775D02*
X20939Y-43475D01*
X21054Y-43475D01*
X21082Y-43489D01*
X21097Y-43504D01*
X21111Y-43532D01*
X21111Y-43575D01*
X21097Y-43604D01*
X21082Y-43618D01*
X21054Y-43632D01*
X20939Y-43632D01*
X21211Y-43475D02*
X21411Y-43475D01*
X21282Y-43775D01*
G54D17*
X28426Y-37509D02*
X28407Y-37500D01*
X28388Y-37481D01*
X28360Y-37453D01*
X28341Y-37443D01*
X28322Y-37443D01*
X28332Y-37490D02*
X28313Y-37481D01*
X28294Y-37462D01*
X28285Y-37425D01*
X28285Y-37359D01*
X28294Y-37321D01*
X28313Y-37303D01*
X28332Y-37293D01*
X28369Y-37293D01*
X28388Y-37303D01*
X28407Y-37321D01*
X28416Y-37359D01*
X28416Y-37425D01*
X28407Y-37462D01*
X28388Y-37481D01*
X28369Y-37490D01*
X28332Y-37490D01*
X28604Y-37490D02*
X28491Y-37490D01*
X28548Y-37490D02*
X28548Y-37293D01*
X28529Y-37321D01*
X28510Y-37340D01*
X28491Y-37349D01*
X22126Y-37607D02*
X22108Y-37598D01*
X22089Y-37579D01*
X22061Y-37551D01*
X22042Y-37542D01*
X22023Y-37542D01*
X22033Y-37589D02*
X22014Y-37579D01*
X21995Y-37560D01*
X21986Y-37523D01*
X21986Y-37457D01*
X21995Y-37420D01*
X22014Y-37401D01*
X22033Y-37392D01*
X22070Y-37392D01*
X22089Y-37401D01*
X22108Y-37420D01*
X22117Y-37457D01*
X22117Y-37523D01*
X22108Y-37560D01*
X22089Y-37579D01*
X22070Y-37589D01*
X22033Y-37589D01*
X22192Y-37410D02*
X22201Y-37401D01*
X22220Y-37392D01*
X22267Y-37392D01*
X22286Y-37401D01*
X22295Y-37410D01*
X22305Y-37429D01*
X22305Y-37448D01*
X22295Y-37476D01*
X22183Y-37589D01*
X22305Y-37589D01*
X35020Y-37804D02*
X35001Y-37795D01*
X34983Y-37776D01*
X34954Y-37748D01*
X34936Y-37739D01*
X34917Y-37739D01*
X34926Y-37785D02*
X34908Y-37776D01*
X34889Y-37757D01*
X34879Y-37720D01*
X34879Y-37654D01*
X34889Y-37617D01*
X34908Y-37598D01*
X34926Y-37588D01*
X34964Y-37588D01*
X34983Y-37598D01*
X35001Y-37617D01*
X35011Y-37654D01*
X35011Y-37720D01*
X35001Y-37757D01*
X34983Y-37776D01*
X34964Y-37785D01*
X34926Y-37785D01*
X35076Y-37588D02*
X35198Y-37588D01*
X35133Y-37664D01*
X35161Y-37664D01*
X35180Y-37673D01*
X35189Y-37682D01*
X35198Y-37701D01*
X35198Y-37748D01*
X35189Y-37767D01*
X35180Y-37776D01*
X35161Y-37785D01*
X35105Y-37785D01*
X35086Y-37776D01*
X35076Y-37767D01*
X30493Y-37509D02*
X30474Y-37500D01*
X30455Y-37481D01*
X30427Y-37453D01*
X30408Y-37443D01*
X30389Y-37443D01*
X30399Y-37490D02*
X30380Y-37481D01*
X30361Y-37462D01*
X30352Y-37425D01*
X30352Y-37359D01*
X30361Y-37321D01*
X30380Y-37303D01*
X30399Y-37293D01*
X30436Y-37293D01*
X30455Y-37303D01*
X30474Y-37321D01*
X30483Y-37359D01*
X30483Y-37425D01*
X30474Y-37462D01*
X30455Y-37481D01*
X30436Y-37490D01*
X30399Y-37490D01*
X30652Y-37359D02*
X30652Y-37490D01*
X30605Y-37284D02*
X30558Y-37425D01*
X30680Y-37425D01*
X23800Y-37607D02*
X23781Y-37598D01*
X23762Y-37579D01*
X23734Y-37551D01*
X23715Y-37542D01*
X23696Y-37542D01*
X23706Y-37589D02*
X23687Y-37579D01*
X23668Y-37560D01*
X23659Y-37523D01*
X23659Y-37457D01*
X23668Y-37420D01*
X23687Y-37401D01*
X23706Y-37392D01*
X23743Y-37392D01*
X23762Y-37401D01*
X23781Y-37420D01*
X23790Y-37457D01*
X23790Y-37523D01*
X23781Y-37560D01*
X23762Y-37579D01*
X23743Y-37589D01*
X23706Y-37589D01*
X23968Y-37392D02*
X23875Y-37392D01*
X23865Y-37485D01*
X23875Y-37476D01*
X23893Y-37467D01*
X23940Y-37467D01*
X23959Y-37476D01*
X23968Y-37485D01*
X23978Y-37504D01*
X23978Y-37551D01*
X23968Y-37570D01*
X23959Y-37579D01*
X23940Y-37589D01*
X23893Y-37589D01*
X23875Y-37579D01*
X23865Y-37570D01*
X36792Y-37804D02*
X36773Y-37795D01*
X36754Y-37776D01*
X36726Y-37748D01*
X36707Y-37739D01*
X36689Y-37739D01*
X36698Y-37785D02*
X36679Y-37776D01*
X36660Y-37757D01*
X36651Y-37720D01*
X36651Y-37654D01*
X36660Y-37617D01*
X36679Y-37598D01*
X36698Y-37588D01*
X36735Y-37588D01*
X36754Y-37598D01*
X36773Y-37617D01*
X36782Y-37654D01*
X36782Y-37720D01*
X36773Y-37757D01*
X36754Y-37776D01*
X36735Y-37785D01*
X36698Y-37785D01*
X36951Y-37588D02*
X36914Y-37588D01*
X36895Y-37598D01*
X36886Y-37607D01*
X36867Y-37635D01*
X36857Y-37673D01*
X36857Y-37748D01*
X36867Y-37767D01*
X36876Y-37776D01*
X36895Y-37785D01*
X36932Y-37785D01*
X36951Y-37776D01*
X36961Y-37767D01*
X36970Y-37748D01*
X36970Y-37701D01*
X36961Y-37682D01*
X36951Y-37673D01*
X36932Y-37664D01*
X36895Y-37664D01*
X36876Y-37673D01*
X36867Y-37682D01*
X36857Y-37701D01*
X42107Y-38001D02*
X42088Y-37992D01*
X42069Y-37973D01*
X42041Y-37945D01*
X42022Y-37935D01*
X42004Y-37935D01*
X42013Y-37982D02*
X41994Y-37973D01*
X41975Y-37954D01*
X41966Y-37917D01*
X41966Y-37851D01*
X41975Y-37813D01*
X41994Y-37795D01*
X42013Y-37785D01*
X42050Y-37785D01*
X42069Y-37795D01*
X42088Y-37813D01*
X42097Y-37851D01*
X42097Y-37917D01*
X42088Y-37954D01*
X42069Y-37973D01*
X42050Y-37982D01*
X42013Y-37982D01*
X42163Y-37785D02*
X42294Y-37785D01*
X42210Y-37982D01*
X43878Y-38001D02*
X43860Y-37992D01*
X43841Y-37973D01*
X43813Y-37945D01*
X43794Y-37935D01*
X43775Y-37935D01*
X43785Y-37982D02*
X43766Y-37973D01*
X43747Y-37954D01*
X43738Y-37917D01*
X43738Y-37851D01*
X43747Y-37813D01*
X43766Y-37795D01*
X43785Y-37785D01*
X43822Y-37785D01*
X43841Y-37795D01*
X43860Y-37813D01*
X43869Y-37851D01*
X43869Y-37917D01*
X43860Y-37954D01*
X43841Y-37973D01*
X43822Y-37982D01*
X43785Y-37982D01*
X43982Y-37870D02*
X43963Y-37860D01*
X43953Y-37851D01*
X43944Y-37832D01*
X43944Y-37823D01*
X43953Y-37804D01*
X43963Y-37795D01*
X43982Y-37785D01*
X44019Y-37785D01*
X44038Y-37795D01*
X44047Y-37804D01*
X44057Y-37823D01*
X44057Y-37832D01*
X44047Y-37851D01*
X44038Y-37860D01*
X44019Y-37870D01*
X43982Y-37870D01*
X43963Y-37879D01*
X43953Y-37889D01*
X43944Y-37907D01*
X43944Y-37945D01*
X43953Y-37964D01*
X43963Y-37973D01*
X43982Y-37982D01*
X44019Y-37982D01*
X44038Y-37973D01*
X44047Y-37964D01*
X44057Y-37945D01*
X44057Y-37907D01*
X44047Y-37889D01*
X44038Y-37879D01*
X44019Y-37870D01*
M02*
