%FSLAX34Y34*%
G04 Gerber Fmt 3.4, Leading zero omitted, Abs format*
G04 (created by PCBNEW (2014-02-26 BZR 4721)-product) date Tuesday, 26 August 2014 11:02:49*
%MOIN*%
G01*
G70*
G90*
G04 APERTURE LIST*
%ADD10C,0.005906*%
%ADD11R,0.090000X0.062000*%
%ADD12O,0.090000X0.062000*%
%ADD13R,0.060000X0.060000*%
%ADD14O,0.060000X0.100000*%
%ADD15C,0.155000*%
G04 APERTURE END LIST*
G54D10*
G54D11*
X31125Y-34661D03*
G54D12*
X31125Y-33661D03*
X31125Y-32661D03*
X28125Y-32661D03*
X28125Y-33661D03*
X28125Y-34661D03*
G54D11*
X24334Y-34661D03*
G54D12*
X24334Y-33661D03*
X24334Y-32661D03*
X21334Y-32661D03*
X21334Y-33661D03*
X21334Y-34661D03*
G54D11*
X37818Y-34661D03*
G54D12*
X37818Y-33661D03*
X37818Y-32661D03*
X34818Y-32661D03*
X34818Y-33661D03*
X34818Y-34661D03*
G54D11*
X44216Y-34759D03*
G54D12*
X44216Y-33759D03*
X44216Y-32759D03*
X41216Y-32759D03*
X41216Y-33759D03*
X41216Y-34759D03*
G54D13*
X29527Y-40551D03*
X22834Y-40551D03*
X36220Y-40551D03*
X42913Y-40551D03*
G54D14*
X44686Y-44739D03*
X43686Y-44739D03*
X42686Y-44739D03*
X39686Y-44739D03*
X40686Y-44739D03*
X41686Y-44739D03*
X37686Y-44739D03*
X36686Y-44739D03*
X35686Y-44739D03*
X33686Y-44739D03*
X32686Y-44739D03*
X44686Y-25739D03*
X43686Y-25739D03*
X42686Y-25739D03*
X41686Y-25739D03*
X40686Y-25739D03*
X39686Y-25739D03*
X38686Y-25739D03*
X37686Y-25739D03*
X36086Y-25739D03*
X35086Y-25739D03*
X34086Y-25739D03*
X33086Y-25739D03*
X32086Y-25739D03*
X31086Y-25739D03*
X30086Y-25739D03*
X29086Y-25739D03*
X34686Y-44739D03*
G54D15*
X45686Y-42739D03*
X45686Y-31739D03*
X25686Y-25739D03*
X25186Y-44739D03*
G54D13*
X21161Y-44389D03*
M02*
