M48
;DRILL file {Pcbnew (2014-02-26 BZR 4721)-product} date Tuesday, 26 August 2014 10:50:11
;FORMAT={2:4/ absolute / inch / suppress leading zeros}
FMAT,2
INCH,TZ
T1C0.025
T2C0.032
T3C0.040
T4C0.125
%
G90
G05
M72
T1
X20768Y-29134
X24311Y-39075
X26870Y-29528
X30906Y-38976
X33366Y-29429
X37500Y-39272
X39961Y-29331
X44488Y-39272
T2
X21335Y-32661
X21335Y-33661
X21335Y-34661
X24335Y-32661
X24335Y-33661
X24335Y-34661
X28126Y-32661
X28126Y-33661
X28126Y-34661
X29087Y-25739
X30087Y-25739
X31087Y-25739
X31126Y-32661
X31126Y-33661
X31126Y-34661
X32087Y-25739
X32687Y-44739
X33087Y-25739
X33687Y-44739
X34087Y-25739
X34687Y-44739
X34819Y-32661
X34819Y-33661
X34819Y-34661
X35087Y-25739
X35687Y-44739
X36087Y-25739
X36687Y-44739
X37687Y-25739
X37687Y-44739
X37819Y-32661
X37819Y-33661
X37819Y-34661
X38687Y-25739
X39687Y-25739
X39687Y-44739
X40687Y-25739
X40687Y-44739
X41217Y-32760
X41217Y-33760
X41217Y-34760
X41687Y-25739
X41687Y-44739
X42687Y-25739
X42687Y-44739
X43687Y-25739
X43687Y-44739
X44217Y-32760
X44217Y-33760
X44217Y-34760
X44687Y-25739
X44687Y-44739
T3
X21161Y-44390
X22835Y-40551
X29528Y-40551
X36220Y-40551
X42913Y-40551
T4
X25187Y-44739
X25687Y-25739
X45687Y-31739
X45687Y-42739
T0
M30
